<?xml version="1.0" encoding="UTF-8"?>
<svg id="Layer_2" data-name="Layer 2" xmlns="http://www.w3.org/2000/svg" viewBox="0 0 135 135">
  <defs>
    <style>
      .cls-1 {
        fill: #010201;
      }

      .cls-1, .cls-2 {
        stroke-width: 0px;
      }

      .cls-2 {
        fill: #fff;
      }
    </style>
  </defs>
  <g id="Graphic_Elements" data-name="Graphic Elements">
    <g>
      <circle class="cls-1" cx="67.5" cy="67.5" r="67.5"/>
      <path class="cls-2" d="m100.36,40.08c-.26-.75-.57-.96-1.05-1.14-1.05-.4-2.83.2-2.83.2,0,0-63.09,22.68-66.69,25.19-.78.54-1.04.85-1.16,1.22-.62,1.79,1.32,2.58,1.32,2.58l16.26,5.3s.61.09.82-.05c3.7-2.34,37.22-23.5,39.15-24.21.31-.09.53.01.47.22-.77,2.72-29.88,28.59-29.88,28.59,0,0-.11.14-.18.3l-.04-.02-1.52,16.13s-.64,4.94,4.31,0c3.49-3.49,6.86-6.4,8.55-7.82,5.59,3.86,11.61,8.13,14.2,10.36,1.3,1.12,2.4,1.3,3.29,1.27,2.46-.09,3.15-2.8,3.15-2.8,0,0,11.5-46.27,11.88-52.47.04-.61.09-.99.09-1.41,0-.58-.05-1.16-.14-1.44Z"/>
    </g>
  </g>
</svg>